<svg xmlns="http://www.w3.org/2000/svg" xmlns:xlink="http://www.w3.org/1999/xlink" xmlns:lucid="lucid" width="380" height="215.16"><g transform="translate(-220.00000000000003 -119.99999999999997)" lucid:page-tab-id="33~_pQvM1b02"><g class="lucid-layer" lucid:layer-id="tDd.e52HlZXl" display="block"><path d="M240 153.32h61.52v29.86H240z" stroke="#666" fill="#b2b2b2"/><use xlink:href="#a" transform="matrix(1,0,0,1,245.00000000000003,158.31838565022426) translate(9.330620659722221 13.331163194444445)"/><path d="M518.48 285.3H580v29.86h-61.52z" stroke="#666" fill="#b2b2b2"/><use xlink:href="#b" transform="matrix(1,0,0,1,523.47533632287,290.2914798206279) translate(5.996744791666664 13.331163194444445)"/><path d="M356.4 153.32h61.54v29.86H356.4z" stroke="#666" fill="#b2b2b2"/><use xlink:href="#c" transform="matrix(1,0,0,1,361.4125560538116,158.31838565022426) translate(-0.67100694444445 13.331163194444445)"/><path d="M441.8 241.3h61.52v29.87H441.8z" stroke="#666" fill="#b2b2b2"/><use xlink:href="#d" transform="matrix(1,0,0,1,446.7937219730943,246.30044843049328) translate(5.996744791666664 13.331163194444445)"/><path d="M288.43 241.3h61.53v29.87h-61.53z" stroke="#666" fill="#b2b2b2"/><use xlink:href="#e" transform="matrix(1,0,0,1,293.43049327354254,246.30044843049328) translate(5.996744791666664 13.331163194444445)"/><path d="M288.43 285.3h61.53v29.86h-61.53z" stroke="#666" fill="#b2b2b2"/><use xlink:href="#f" transform="matrix(1,0,0,1,293.43049327354254,290.2914798206279) translate(5.996744791666664 13.331163194444445)"/><path d="M472.83 153.32h61.52v29.86h-61.52z" stroke="#666" fill="#b2b2b2"/><use xlink:href="#g" transform="matrix(1,0,0,1,477.82511210762334,158.31838565022426) translate(-0.67100694444445 13.331163194444445)"/><path d="M240 196.13h61.52v32.22H240z" fill="#b2b2b2"/><path d="M250.25 196.13h10.26m5.14 0h10.25m5.12 0h10.25m5.13 0h5.12v5.37m0 5.37v10.74m0 5.38v5.37h-5.12m-5.13 0h-10.25m-5.13 0h-10.26m-5.13 0h-10.25m-5.12 0H240v-5.37m0-5.37v-10.73m0-5.37v-5.37h5.13" stroke="#666" fill="none"/><use xlink:href="#h" transform="matrix(1,0,0,1,245.00000000000003,201.13104135525657) translate(5.996744791666664 9.27560763888889)"/><use xlink:href="#i" transform="matrix(1,0,0,1,245.00000000000003,201.13104135525657) translate(9.330620659722221 20.38671875)"/><path d="M365.1 240.12h61.54v32.22H365.1z" fill="#b2b2b2"/><path d="M375.37 240.12h10.25m5.13 0H401m5.13 0h10.25m5.13 0h5.14v5.37m0 5.36v10.74m0 5.37v5.37h-5.13m-5.12 0h-10.25m-5.13 0h-10.25m-5.13 0h-10.25m-5.13 0h-5.13v-5.37m0-5.37v-10.74m0-5.37v-5.38h5.14" stroke="#666" fill="none"/><use xlink:href="#j" transform="matrix(1,0,0,1,370.11210762331837,245.12207274539114) translate(5.996744791666664 9.27560763888889)"/><use xlink:href="#k" transform="matrix(1,0,0,1,370.11210762331837,245.12207274539114) translate(5.996744791666664 20.38671875)"/><path d="M518.48 240.12H580v32.22h-61.52z" fill="#b2b2b2"/><path d="M528.73 240.12h10.25m5.13 0h10.26m5.13 0h10.25m5.12 0H580v5.37m0 5.36v10.74m0 5.37v5.37h-5.13m-5.12 0H559.5m-5.14 0H544.1m-5.12 0h-10.25m-5.13 0h-5.12v-5.37m0-5.37v-10.74m0-5.37v-5.38h5.12" stroke="#666" fill="none"/><use xlink:href="#l" transform="matrix(1,0,0,1,523.47533632287,245.12207274539114) translate(-0.67100694444445 9.27560763888889)"/><use xlink:href="#m" transform="matrix(1,0,0,1,523.47533632287,245.12207274539114) translate(5.996744791666664 20.38671875)"/><path d="M270.76 195.13v.5" stroke="#666" fill="none"/><path d="M271.26 195.63h-1v-.5h1z" fill="#666"/><path d="M270.76 185.3l4.64 14.27h-9.27z" stroke="#666" fill="#666"/><path d="M287.43 256.23h-16.67v-11" stroke="#666" fill="none"/><path d="M287.93 256.73h-.5v-1h.5z" fill="#666"/><path d="M270.76 230.47l4.64 14.27h-9.27z" stroke="#666" fill="#666"/><path d="M369.9 200.07v12.17h-50.7v28.06" stroke="#666" fill="none"/><path d="M369.9 185.3l4.65 14.27h-9.27z" stroke="#666" fill="#666"/><path d="M319.7 240.8h-1v-.5h1z" fill="#666"/><path d="M397.78 200.07v12.17h73.83v28.06" stroke="#666" fill="none"/><path d="M397.78 185.3l4.64 14.27h-9.27z" stroke="#666" fill="#666"/><path d="M472.1 240.8h-1v-.5h1z" fill="#666"/><path d="M364.1 256.23h.5" stroke="#666" fill="none"/><path d="M364.6 256.73h-.5v-1h.5z" fill="#666"/><path d="M352.07 256.23l14.27-4.63v9.27z" stroke="#666" fill="#666"/><path d="M440.8 256.23h.5" stroke="#666" fill="none"/><path d="M441.3 256.73h-.52v-1h.5z" fill="#666"/><path d="M428.75 256.23l14.27-4.63v9.27z" stroke="#666" fill="#666"/><path d="M504.32 256.23h-.5" stroke="#666" fill="none"/><path d="M504.33 256.73h-.5v-1h.5z" fill="#666"/><path d="M516.36 256.23l-14.27 4.64v-9.27z" stroke="#666" fill="#666"/><path d="M319.2 272.17v-.5" stroke="#666" fill="none"/><path d="M319.7 272.18h-1v-.5h1z" fill="#666"/><path d="M319.2 283.17l-4.64-14.26h9.27z" stroke="#666" fill="#666"/><path d="M549.24 273.34v-.5" stroke="#666" fill="none"/><path d="M549.74 273.36h-1v-.52h1z" fill="#666"/><path d="M549.24 283.17l-4.64-14.26h9.27z" stroke="#666" fill="#666"/><path d="M471.83 168.25h-37" stroke="#666" fill="none"/><path d="M472.33 168.75h-.52v-1h.53z" fill="#666"/><path d="M420.06 168.25l14.26-4.63v9.27z" stroke="#666" fill="#666"/><path d="M503.6 184.18v27.47h45.64v11.6" stroke="#666" fill="none"/><path d="M504.1 184.2h-1v-.52h1z" fill="#666"/><path d="M549.24 238l-4.64-14.26h9.27z" stroke="#666" fill="#666"/><path d="M365.1 140h13.47v9.7l-6.73 6.44-6.73-6.45zM482.15 140h13.46v9.7l-6.72 6.44-6.73-6.45z" stroke="#666" fill="#b2b2b2"/><g><path d="M406.82 156.14h-13.46v-9.68l6.73-6.46 6.72 6.46z" stroke="#666" fill="#b2b2b2"/></g></g><g class="lucid-layer" lucid:layer-id="7Cd.3b8W5xdn" display="none"><path d="M240 153.32h61.52v29.86H240z" stroke="#000" fill="#0c7cba"/><use xlink:href="#a" transform="matrix(1,0,0,1,245.00000000000003,158.31838565022423) translate(9.330620659722221 13.331163194444445)"/><path d="M518.48 285.3H580v29.86h-61.52z" stroke="#000" fill="#0c7cba"/><use xlink:href="#b" transform="matrix(1,0,0,1,523.47533632287,290.2914798206279) translate(5.996744791666664 13.331163194444445)"/><path d="M356.4 153.32h61.54v29.86H356.4z" stroke="#000" fill="#0c7cba"/><use xlink:href="#c" transform="matrix(1,0,0,1,361.4125560538116,158.31838565022423) translate(-0.67100694444445 13.331163194444445)"/><path d="M441.8 241.3h61.52v29.87H441.8z" stroke="#000" fill="#0c7cba"/><use xlink:href="#d" transform="matrix(1,0,0,1,446.7937219730943,246.30044843049328) translate(5.996744791666664 13.331163194444445)"/><path d="M288.43 241.3h61.53v29.87h-61.53z" stroke="#000" fill="#0c7cba"/><use xlink:href="#e" transform="matrix(1,0,0,1,293.43049327354254,246.30044843049328) translate(5.996744791666664 13.331163194444445)"/><path d="M288.43 285.3h61.53v29.86h-61.53z" stroke="#000" fill="#0c7cba"/><use xlink:href="#f" transform="matrix(1,0,0,1,293.43049327354254,290.2914798206279) translate(5.996744791666664 13.331163194444445)"/><path d="M472.83 153.32h61.52v29.86h-61.52z" stroke="#000" fill="#0c7cba"/><use xlink:href="#g" transform="matrix(1,0,0,1,477.82511210762334,158.31838565022423) translate(-0.67100694444445 13.331163194444445)"/><path d="M240 196.13h61.52v32.22H240z" fill="#83bbe5"/><path d="M250.25 196.13h10.26m5.14 0h10.25m5.12 0h10.25m5.13 0h5.12v5.37m0 5.37v10.74m0 5.38v5.37h-5.12m-5.13 0h-10.25m-5.13 0h-10.26m-5.13 0h-10.25m-5.12 0H240v-5.37m0-5.37v-10.73m0-5.37v-5.37h5.13" stroke="#000" fill="none"/><use xlink:href="#h" transform="matrix(1,0,0,1,245.00000000000003,201.1310413552566) translate(5.996744791666664 9.27560763888889)"/><use xlink:href="#i" transform="matrix(1,0,0,1,245.00000000000003,201.1310413552566) translate(9.330620659722221 20.38671875)"/><path d="M365.1 240.12h61.54v32.22H365.1z" fill="#83bbe5"/><path d="M375.37 240.12h10.25m5.13 0H401m5.13 0h10.25m5.13 0h5.14v5.37m0 5.36v10.74m0 5.37v5.37h-5.13m-5.12 0h-10.25m-5.13 0h-10.25m-5.13 0h-10.25m-5.13 0h-5.13v-5.37m0-5.37v-10.74m0-5.37v-5.38h5.14" stroke="#000" fill="none"/><use xlink:href="#j" transform="matrix(1,0,0,1,370.11210762331837,245.12207274539114) translate(5.996744791666664 9.27560763888889)"/><use xlink:href="#k" transform="matrix(1,0,0,1,370.11210762331837,245.12207274539114) translate(5.996744791666664 20.38671875)"/><path d="M518.48 240.12H580v32.22h-61.52z" fill="#83bbe5"/><path d="M528.73 240.12h10.25m5.13 0h10.26m5.13 0h10.25m5.12 0H580v5.37m0 5.36v10.74m0 5.37v5.37h-5.13m-5.12 0H559.5m-5.14 0H544.1m-5.12 0h-10.25m-5.13 0h-5.12v-5.37m0-5.37v-10.74m0-5.37v-5.38h5.12" stroke="#000" fill="none"/><use xlink:href="#l" transform="matrix(1,0,0,1,523.47533632287,245.12207274539114) translate(-0.67100694444445 9.27560763888889)"/><use xlink:href="#m" transform="matrix(1,0,0,1,523.47533632287,245.12207274539114) translate(5.996744791666664 20.38671875)"/><path d="M270.76 195.13v.5" stroke="#000" fill="none"/><path d="M271.26 195.63h-1v-.5h1z"/><path d="M270.76 185.3l4.64 14.27h-9.27z" stroke="#000"/><path d="M287.43 256.23h-16.67v-11" stroke="#000" fill="none"/><path d="M287.93 256.73h-.5v-1h.5z"/><path d="M270.76 230.47l4.64 14.27h-9.27z" stroke="#000"/><path d="M369.9 200.07v12.17h-50.7v28.06" stroke="#000" fill="none"/><path d="M369.9 185.3l4.65 14.27h-9.27z" stroke="#000"/><path d="M319.7 240.8h-1v-.5h1z"/><path d="M397.78 200.07v12.17h73.83v28.06" stroke="#000" fill="none"/><path d="M397.78 185.3l4.64 14.27h-9.27z" stroke="#000"/><path d="M472.1 240.8h-1v-.5h1z"/><path d="M364.1 256.23h.5" stroke="#000" fill="none"/><path d="M364.6 256.73h-.5v-1h.5z"/><path d="M352.07 256.23l14.27-4.63v9.27z" stroke="#000"/><path d="M440.8 256.23h.5" stroke="#000" fill="none"/><path d="M441.3 256.73h-.52v-1h.5z"/><path d="M428.75 256.23l14.27-4.63v9.27z" stroke="#000"/><path d="M504.32 256.23h-.5" stroke="#000" fill="none"/><path d="M504.33 256.73h-.5v-1h.5z"/><path d="M516.36 256.23l-14.27 4.64v-9.27z" stroke="#000"/><path d="M319.2 272.17v-.5" stroke="#000" fill="none"/><path d="M319.7 272.18h-1v-.5h1z"/><path d="M319.2 283.17l-4.64-14.26h9.27z" stroke="#000"/><path d="M549.24 273.34v-.5" stroke="#000" fill="none"/><path d="M549.74 273.36h-1v-.52h1z"/><path d="M549.24 283.17l-4.64-14.26h9.27z" stroke="#000"/><path d="M471.83 168.25h-37" stroke="#000" fill="none"/><path d="M472.33 168.75h-.52v-1h.53z"/><path d="M420.06 168.25l14.26-4.63v9.27z" stroke="#000"/><path d="M503.6 184.18v27.47h45.64v11.6" stroke="#000" fill="none"/><path d="M504.1 184.2h-1v-.52h1z"/><path d="M549.24 238l-4.64-14.26h9.27z" stroke="#000"/><path d="M365.1 140h13.47v9.7l-6.73 6.44-6.73-6.45zM482.15 140h13.46v9.7l-6.72 6.44-6.73-6.45z" stroke="#000" fill="#ef8d22"/><g><path d="M406.82 156.14h-13.46v-9.68l6.73-6.46 6.72 6.46z" stroke="#000" fill="#834187"/></g></g><g class="lucid-layer" lucid:layer-id="yXd.KduStx1f" display="none"><path d="M240 153.32h61.52v29.86H240z" fill="#0c7cba"/><path d="M281.02 153.32h20.5v29.86h-20.5m-20.5 0H240v-29.86h20.5" stroke="#c92d39" stroke-width="3" fill="none"/><use xlink:href="#a" transform="matrix(1,0,0,1,245.00000000000003,158.31838565022426) translate(9.330620659722221 13.331163194444445)"/><path d="M518.48 285.3H580v29.86h-61.52z" fill="#0c7cba"/><path d="M559.5 285.3H580v29.86h-20.5m-20.52 0h-20.5V285.3h20.5" stroke="#c92d39" stroke-width="3" fill="none"/><use xlink:href="#b" transform="matrix(1,0,0,1,523.47533632287,290.2914798206279) translate(5.996744791666664 13.331163194444445)"/></g><g class="lucid-layer" lucid:layer-id="sYd.8XGZNdHg" display="none"><path d="M240 153.32h61.52v29.86H240z" stroke="#000" fill="#0c7cba"/><use xlink:href="#a" transform="matrix(1,0,0,1,245.00000000000003,158.31838565022426) translate(9.330620659722221 13.331163194444445)"/><path d="M518.48 285.3H580v29.86h-61.52z" stroke="#000" fill="#0c7cba"/><use xlink:href="#b" transform="matrix(1,0,0,1,523.47533632287,290.2914798206279) translate(5.996744791666664 13.331163194444445)"/><path d="M240 196.13h61.52v32.22H240z" fill="#83bbe5"/><path d="M281.02 196.13h20.5v10.74m0 10.74v10.75h-20.5m-20.5 0H240V217.6m0-10.73v-10.74h20.5" stroke="#c92d39" stroke-width="3" fill="none"/><use xlink:href="#h" transform="matrix(1,0,0,1,245.00000000000003,201.13104135525663) translate(5.996744791666664 9.27560763888889)"/><use xlink:href="#i" transform="matrix(1,0,0,1,245.00000000000003,201.13104135525663) translate(9.330620659722221 20.38671875)"/><path d="M270.76 193.63v1" fill="none"/><path d="M270.76 193.63v1" stroke="#c92d39" stroke-width="2" fill="none"/><path d="M271.76 194.63h-2v-1.02h2z" fill="#c92d39"/><path d="M270.76 186.92l4.64 14.27h-9.27z" stroke="#c92d39" stroke-width="2" fill="#c92d39"/></g><g class="lucid-layer" lucid:layer-id="JZd.pHHbbNy-" display="none"><path d="M240 153.32h61.52v29.86H240z" stroke="#000" fill="#0c7cba"/><use xlink:href="#a" transform="matrix(1,0,0,1,245.00000000000003,158.31838565022426) translate(9.330620659722221 13.331163194444445)"/><path d="M518.48 285.3H580v29.86h-61.52z" stroke="#000" fill="#0c7cba"/><use xlink:href="#b" transform="matrix(1,0,0,1,523.47533632287,290.2914798206279) translate(5.996744791666664 13.331163194444445)"/><path d="M288.43 285.3h61.53v29.86h-61.53z" fill="#0c7cba"/><path d="M329.45 285.3h20.5v29.86h-20.5m-20.5 0h-20.52V285.3h20.5" stroke="#c92d39" stroke-width="3" fill="none"/><use xlink:href="#f" transform="matrix(1,0,0,1,293.43049327354254,290.2914798206279) translate(5.996744791666664 13.331163194444445)"/><path d="M240 196.13h61.52v32.22H240z" fill="#83bbe5"/><path d="M250.25 196.13h10.26m5.14 0h10.25m5.12 0h10.25m5.13 0h5.12v5.37m0 5.37v10.74m0 5.38v5.37h-5.12m-5.13 0h-10.25m-5.13 0h-10.26m-5.13 0h-10.25m-5.12 0H240v-5.37m0-5.37v-10.73m0-5.37v-5.37h5.13" stroke="#000" fill="none"/><use xlink:href="#h" transform="matrix(1,0,0,1,245.00000000000003,201.13104135525663) translate(5.996744791666664 9.27560763888889)"/><use xlink:href="#i" transform="matrix(1,0,0,1,245.00000000000003,201.13104135525663) translate(9.330620659722221 20.38671875)"/><path d="M270.76 195.13v.5" stroke="#000" fill="none"/><path d="M271.26 195.63h-1v-.5h1z"/><path d="M270.76 185.3l4.64 14.27h-9.27z" stroke="#000"/></g><g class="lucid-layer" lucid:layer-id="D0d.kGmzEAmH" display="none"><path d="M240 153.32h61.52v29.86H240z" stroke="#000" fill="#0c7cba"/><use xlink:href="#a" transform="matrix(1,0,0,1,245.00000000000003,158.31838565022426) translate(9.330620659722221 13.331163194444445)"/><path d="M518.48 285.3H580v29.86h-61.52z" stroke="#000" fill="#0c7cba"/><use xlink:href="#b" transform="matrix(1,0,0,1,523.47533632287,290.2914798206279) translate(5.996744791666664 13.331163194444445)"/><path d="M356.4 153.32h61.54v29.86H356.4z" fill="#0c7cba"/><path d="M397.43 153.32h20.5v29.86h-20.5m-20.5 0H356.4v-29.86h20.52" stroke="#c92d39" stroke-width="3" fill="none"/><use xlink:href="#c" transform="matrix(1,0,0,1,361.4125560538116,158.31838565022426) translate(-0.67100694444445 13.331163194444445)"/><path d="M288.43 285.3h61.53v29.86h-61.53z" stroke="#000" fill="#0c7cba"/><use xlink:href="#f" transform="matrix(1,0,0,1,293.43049327354254,290.2914798206279) translate(5.996744791666664 13.331163194444445)"/><path d="M240 196.13h61.52v32.22H240z" fill="#83bbe5"/><path d="M250.25 196.13h10.26m5.14 0h10.25m5.12 0h10.25m5.13 0h5.12v5.37m0 5.37v10.74m0 5.38v5.37h-5.12m-5.13 0h-10.25m-5.13 0h-10.26m-5.13 0h-10.25m-5.12 0H240v-5.37m0-5.37v-10.73m0-5.37v-5.37h5.13" stroke="#000" fill="none"/><use xlink:href="#h" transform="matrix(1,0,0,1,245.00000000000003,201.13104135525663) translate(5.996744791666664 9.27560763888889)"/><use xlink:href="#i" transform="matrix(1,0,0,1,245.00000000000003,201.13104135525663) translate(9.330620659722221 20.38671875)"/><path d="M270.76 195.13v.5" stroke="#000" fill="none"/><path d="M271.26 195.63h-1v-.5h1z"/><path d="M270.76 185.3l4.64 14.27h-9.27z" stroke="#000"/><path d="M365.1 140h13.47v9.7l-6.73 6.44-6.73-6.45z" stroke="#666" fill="#b2b2b2"/><g><path d="M406.82 156.14h-13.46v-9.68l6.73-6.46 6.72 6.46z" stroke="#666" fill="#b2b2b2"/></g></g><g class="lucid-layer" lucid:layer-id="Jnt.o9LexhQ5" display="block"><path d="M240 153.32h61.52v29.86H240z" stroke="#000" fill="#0c7cba"/><use xlink:href="#a" transform="matrix(1,0,0,1,245.00000000000003,158.31838565022426) translate(9.330620659722221 13.331163194444445)"/><path d="M518.48 285.3H580v29.86h-61.52z" stroke="#000" fill="#0c7cba"/><use xlink:href="#b" transform="matrix(1,0,0,1,523.47533632287,290.2914798206279) translate(5.996744791666664 13.331163194444445)"/><path d="M356.4 153.32h61.54v29.86H356.4z" stroke="#000" fill="#0c7cba"/><use xlink:href="#c" transform="matrix(1,0,0,1,361.4125560538116,158.31838565022426) translate(-0.67100694444445 13.331163194444445)"/><path d="M288.43 285.3h61.53v29.86h-61.53z" stroke="#000" fill="#0c7cba"/><use xlink:href="#f" transform="matrix(1,0,0,1,293.43049327354254,290.2914798206279) translate(5.996744791666664 13.331163194444445)"/><path d="M240 196.13h61.52v32.22H240z" fill="#83bbe5"/><path d="M250.25 196.13h10.26m5.14 0h10.25m5.12 0h10.25m5.13 0h5.12v5.37m0 5.37v10.74m0 5.38v5.37h-5.12m-5.13 0h-10.25m-5.13 0h-10.26m-5.13 0h-10.25m-5.12 0H240v-5.37m0-5.37v-10.73m0-5.37v-5.37h5.13" stroke="#000" fill="none"/><use xlink:href="#h" transform="matrix(1,0,0,1,245.00000000000003,201.13104135525663) translate(5.996744791666664 9.27560763888889)"/><use xlink:href="#i" transform="matrix(1,0,0,1,245.00000000000003,201.13104135525663) translate(9.330620659722221 20.38671875)"/><path d="M270.76 195.13v.5" stroke="#000" fill="none"/><path d="M271.26 195.63h-1v-.5h1z"/><path d="M270.76 185.3l4.64 14.27h-9.27z" stroke="#000"/><path d="M365.1 140h13.47v9.7l-6.73 6.44-6.73-6.45z" stroke="#666" fill="#b2b2b2"/><g><path d="M406.82 156.14h-13.46v-9.68l6.73-6.46 6.72 6.46z" stroke="#666" fill="#b2b2b2"/></g></g><g class="lucid-layer" lucid:layer-id="Q1d.Umrmsc5U" display="none"><path d="M240 153.32h61.52v29.86H240z" stroke="#000" fill="#0c7cba"/><use xlink:href="#a" transform="matrix(1,0,0,1,245.00000000000003,158.31838565022426) translate(9.330620659722221 13.331163194444445)"/><path d="M518.48 285.3H580v29.86h-61.52z" stroke="#000" fill="#0c7cba"/><use xlink:href="#b" transform="matrix(1,0,0,1,523.47533632287,290.2914798206279) translate(5.996744791666664 13.331163194444445)"/><path d="M356.4 153.32h61.54v29.86H356.4z" stroke="#000" fill="#0c7cba"/><use xlink:href="#c" transform="matrix(1,0,0,1,361.4125560538116,158.31838565022426) translate(-0.67100694444445 13.331163194444445)"/><path d="M288.43 241.3h61.53v29.87h-61.53z" fill="#0c7cba"/><path d="M329.45 241.3h20.5v29.87h-20.5m-20.5 0h-20.52V241.3h20.5" stroke="#c92d39" stroke-width="3" fill="none"/><use xlink:href="#e" transform="matrix(1,0,0,1,293.43049327354254,246.30044843049328) translate(5.996744791666664 13.331163194444445)"/><path d="M288.43 285.3h61.53v29.86h-61.53z" stroke="#000" fill="#0c7cba"/><use xlink:href="#f" transform="matrix(1,0,0,1,293.43049327354254,290.2914798206279) translate(5.996744791666664 13.331163194444445)"/><path d="M240 196.13h61.52v32.22H240z" fill="#83bbe5"/><path d="M250.25 196.13h10.26m5.14 0h10.25m5.12 0h10.25m5.13 0h5.12v5.37m0 5.37v10.74m0 5.38v5.37h-5.12m-5.13 0h-10.25m-5.13 0h-10.26m-5.13 0h-10.25m-5.12 0H240v-5.37m0-5.37v-10.73m0-5.37v-5.37h5.13" stroke="#000" fill="none"/><use xlink:href="#h" transform="matrix(1,0,0,1,245.00000000000003,201.13104135525663) translate(5.996744791666664 9.27560763888889)"/><use xlink:href="#i" transform="matrix(1,0,0,1,245.00000000000003,201.13104135525663) translate(9.330620659722221 20.38671875)"/><path d="M270.76 195.13v.5" stroke="#000" fill="none"/><path d="M271.26 195.63h-1v-.5h1z"/><path d="M270.76 185.3l4.64 14.27h-9.27z" stroke="#000"/><path d="M285.93 256.23h-15.17v-8.87" stroke="#c92d39" stroke-width="2" fill="none"/><path d="M286.93 257.23h-1.03v-2h1.03z" fill="#c92d39"/><path d="M270.76 232.1l4.64 14.26h-9.27z" stroke="#c92d39" stroke-width="2" fill="#c92d39"/><path d="M369.9 202.2v9.54h-50.7v27.06" stroke="#c92d39" stroke-width="2" fill="none"/><path d="M369.9 186.92l4.65 14.27h-9.27z" stroke="#c92d39" stroke-width="2" fill="#c92d39"/><path d="M320.2 239.8h-2v-1.03h2z" fill="#c92d39"/><path d="M319.2 273.67v-1" stroke="#c92d39" stroke-width="2" fill="none"/><path d="M320.2 273.7h-2v-1.03h2z" fill="#c92d39"/><path d="M319.2 281.56l-4.64-14.27h9.27z" stroke="#c92d39" stroke-width="2" fill="#c92d39"/><path d="M365.1 140h13.47v9.7l-6.73 6.44-6.73-6.45z" stroke="#666" fill="#b2b2b2"/><g><path d="M406.82 156.14h-13.46v-9.68l6.73-6.46 6.72 6.46z" stroke="#666" fill="#b2b2b2"/></g></g><g class="lucid-layer" lucid:layer-id="L3d.B1JZShnv" display="none"><path d="M240 153.32h61.52v29.86H240z" stroke="#000" fill="#0c7cba"/><use xlink:href="#a" transform="matrix(1,0,0,1,245.00000000000003,158.31838565022426) translate(9.330620659722221 13.331163194444445)"/><path d="M518.48 285.3H580v29.86h-61.52z" stroke="#000" fill="#0c7cba"/><use xlink:href="#b" transform="matrix(1,0,0,1,523.47533632287,290.2914798206279) translate(5.996744791666664 13.331163194444445)"/><path d="M356.4 153.32h61.54v29.86H356.4z" stroke="#000" fill="#0c7cba"/><use xlink:href="#c" transform="matrix(1,0,0,1,361.4125560538116,158.31838565022426) translate(-0.67100694444445 13.331163194444445)"/><path d="M441.8 241.3h61.52v29.87H441.8z" fill="#0c7cba"/><path d="M482.8 241.3h20.52v29.87h-20.5m-20.52 0h-20.5V241.3h20.5" stroke="#c92d39" stroke-width="3" fill="none"/><use xlink:href="#d" transform="matrix(1,0,0,1,446.7937219730943,246.30044843049328) translate(5.996744791666664 13.331163194444445)"/><path d="M288.43 241.3h61.53v29.87h-61.53z" stroke="#000" fill="#0c7cba"/><use xlink:href="#e" transform="matrix(1,0,0,1,293.43049327354254,246.30044843049328) translate(5.996744791666664 13.331163194444445)"/><path d="M288.43 285.3h61.53v29.86h-61.53z" stroke="#000" fill="#0c7cba"/><use xlink:href="#f" transform="matrix(1,0,0,1,293.43049327354254,290.2914798206279) translate(5.996744791666664 13.331163194444445)"/><path d="M240 196.13h61.52v32.22H240z" fill="#83bbe5"/><path d="M250.25 196.13h10.26m5.14 0h10.25m5.12 0h10.25m5.13 0h5.12v5.37m0 5.37v10.74m0 5.38v5.37h-5.12m-5.13 0h-10.25m-5.13 0h-10.26m-5.13 0h-10.25m-5.12 0H240v-5.37m0-5.37v-10.73m0-5.37v-5.37h5.13" stroke="#000" fill="none"/><use xlink:href="#h" transform="matrix(1,0,0,1,245.00000000000003,201.13104135525663) translate(5.996744791666664 9.27560763888889)"/><use xlink:href="#i" transform="matrix(1,0,0,1,245.00000000000003,201.13104135525663) translate(9.330620659722221 20.38671875)"/><path d="M365.1 240.12h61.54v32.22H365.1z" fill="#83bbe5"/><path d="M406.13 240.12h20.5v10.74m0 10.74v10.74h-20.5m-20.5 0H365.1V261.6m0-10.74v-10.74h20.52" stroke="#c92d39" stroke-width="3" fill="none"/><use xlink:href="#j" transform="matrix(1,0,0,1,370.11210762331837,245.12207274539114) translate(5.996744791666664 9.27560763888889)"/><use xlink:href="#k" transform="matrix(1,0,0,1,370.11210762331837,245.12207274539114) translate(5.996744791666664 20.38671875)"/><path d="M518.48 240.12H580v32.22h-61.52z" fill="#83bbe5"/><path d="M559.5 240.12H580v10.74m0 10.74v10.74h-20.5m-20.52 0h-20.5V261.6m0-10.74v-10.74h20.5" stroke="#c92d39" stroke-width="3" fill="none"/><use xlink:href="#l" transform="matrix(1,0,0,1,523.47533632287,245.12207274539114) translate(-0.67100694444445 9.27560763888889)"/><use xlink:href="#m" transform="matrix(1,0,0,1,523.47533632287,245.12207274539114) translate(5.996744791666664 20.38671875)"/><path d="M270.76 195.13v.5" stroke="#000" fill="none"/><path d="M271.26 195.63h-1v-.5h1z"/><path d="M270.76 185.3l4.64 14.27h-9.27z" stroke="#000"/><path d="M287.43 256.23h-16.67v-11" stroke="#000" fill="none"/><path d="M287.93 256.73h-.5v-1h.5z"/><path d="M270.76 230.47l4.64 14.27h-9.27z" stroke="#000"/><path d="M369.9 200.07v12.17h-50.7v28.06" stroke="#000" fill="none"/><path d="M369.9 185.3l4.65 14.27h-9.27z" stroke="#000"/><path d="M319.7 240.8h-1v-.5h1z"/><path d="M397.78 202.2v9.54h73.77v27.06" stroke="#c92d39" stroke-width="2" fill="none"/><path d="M397.78 186.92l4.64 14.27h-9.27z" stroke="#c92d39" stroke-width="2" fill="#c92d39"/><path d="M472.55 239.8h-2v-1.03h2z" fill="#c92d39"/><path d="M362.6 256.23h1" stroke="#c92d39" stroke-width="2" fill="none"/><path d="M363.6 257.23h-1v-2h1z" fill="#c92d39"/><path d="M353.7 256.23l14.26-4.63v9.27z" stroke="#c92d39" stroke-width="2" fill="#c92d39"/><path d="M438.8 256.23h1.5" fill="none"/><path d="M438.8 256.23h1.5" stroke="#c92d39" stroke-width="3" fill="none"/><path d="M440.3 257.73h-1.54v-3h1.53z" fill="#c92d39"/><path d="M433 256.23l14.26-4.63v9.27z" stroke="#c92d39" stroke-width="3" fill="#c92d39"/><path d="M506.32 256.23h-1.5" fill="none"/><path d="M506.32 256.23h-1.5" stroke="#c92d39" stroke-width="3" fill="none"/><path d="M506.36 257.73h-1.54v-3h1.54z" fill="#c92d39"/><path d="M512.12 256.23l-14.26 4.64v-9.27z" stroke="#c92d39" stroke-width="3" fill="#c92d39"/><path d="M319.2 272.17v-.5" stroke="#000" fill="none"/><path d="M319.7 272.18h-1v-.5h1z"/><path d="M319.2 283.17l-4.64-14.26h9.27z" stroke="#000"/><path d="M549.24 274.84v-1" stroke="#c92d39" stroke-width="2" fill="none"/><path d="M550.24 274.87h-2v-1.03h2z" fill="#c92d39"/><path d="M549.24 281.56l-4.64-14.27h9.27z" stroke="#c92d39" stroke-width="2" fill="#c92d39"/><path d="M365.1 140h13.47v9.7l-6.73 6.44-6.73-6.45z" stroke="#666" fill="#b2b2b2"/><g><path d="M406.82 156.14h-13.46v-9.68l6.73-6.46 6.72 6.46z" stroke="#666" fill="#b2b2b2"/></g></g><g class="lucid-layer" lucid:layer-id="B6d.OB7~fRaW" display="none"><path d="M240 153.32h61.52v29.86H240z" stroke="#000" fill="#0c7cba"/><use xlink:href="#a" transform="matrix(1,0,0,1,245.00000000000003,158.31838565022426) translate(9.330620659722221 13.331163194444445)"/><path d="M518.48 285.3H580v29.86h-61.52z" stroke="#000" fill="#0c7cba"/><use xlink:href="#b" transform="matrix(1,0,0,1,523.47533632287,290.2914798206279) translate(5.996744791666664 13.331163194444445)"/><path d="M356.4 153.32h61.54v29.86H356.4z" stroke="#000" fill="#0c7cba"/><use xlink:href="#c" transform="matrix(1,0,0,1,361.4125560538116,158.31838565022426) translate(-0.67100694444445 13.331163194444445)"/><path d="M441.8 241.3h61.52v29.87H441.8z" stroke="#000" fill="#0c7cba"/><use xlink:href="#d" transform="matrix(1,0,0,1,446.7937219730943,246.30044843049328) translate(5.996744791666664 13.331163194444445)"/><path d="M288.43 241.3h61.53v29.87h-61.53z" stroke="#000" fill="#0c7cba"/><use xlink:href="#e" transform="matrix(1,0,0,1,293.43049327354254,246.30044843049328) translate(5.996744791666664 13.331163194444445)"/><path d="M288.43 285.3h61.53v29.86h-61.53z" stroke="#000" fill="#0c7cba"/><use xlink:href="#f" transform="matrix(1,0,0,1,293.43049327354254,290.2914798206279) translate(5.996744791666664 13.331163194444445)"/><path d="M240 196.13h61.52v32.22H240z" fill="#83bbe5"/><path d="M250.25 196.13h10.26m5.14 0h10.25m5.12 0h10.25m5.13 0h5.12v5.37m0 5.37v10.74m0 5.38v5.37h-5.12m-5.13 0h-10.25m-5.13 0h-10.26m-5.13 0h-10.25m-5.12 0H240v-5.37m0-5.37v-10.73m0-5.37v-5.37h5.13" stroke="#000" fill="none"/><use xlink:href="#h" transform="matrix(1,0,0,1,245.00000000000003,201.13104135525663) translate(5.996744791666664 9.27560763888889)"/><use xlink:href="#i" transform="matrix(1,0,0,1,245.00000000000003,201.13104135525663) translate(9.330620659722221 20.38671875)"/><path d="M365.1 240.12h61.54v32.22H365.1z" fill="#83bbe5"/><path d="M375.37 240.12h10.25m5.13 0H401m5.13 0h10.25m5.13 0h5.14v5.37m0 5.36v10.74m0 5.37v5.37h-5.13m-5.12 0h-10.25m-5.13 0h-10.25m-5.13 0h-10.25m-5.13 0h-5.13v-5.37m0-5.37v-10.74m0-5.37v-5.38h5.14" stroke="#000" fill="none"/><use xlink:href="#j" transform="matrix(1,0,0,1,370.11210762331837,245.12207274539114) translate(5.996744791666664 9.27560763888889)"/><use xlink:href="#k" transform="matrix(1,0,0,1,370.11210762331837,245.12207274539114) translate(5.996744791666664 20.38671875)"/><path d="M518.48 240.12H580v32.22h-61.52z" fill="#83bbe5"/><path d="M528.73 240.12h10.25m5.13 0h10.26m5.13 0h10.25m5.12 0H580v5.37m0 5.36v10.74m0 5.37v5.37h-5.13m-5.12 0H559.5m-5.14 0H544.1m-5.12 0h-10.25m-5.13 0h-5.12v-5.37m0-5.37v-10.74m0-5.37v-5.38h5.12" stroke="#000" fill="none"/><use xlink:href="#l" transform="matrix(1,0,0,1,523.47533632287,245.12207274539114) translate(-0.67100694444445 9.27560763888889)"/><use xlink:href="#m" transform="matrix(1,0,0,1,523.47533632287,245.12207274539114) translate(5.996744791666664 20.38671875)"/><path d="M270.76 195.13v.5" stroke="#000" fill="none"/><path d="M271.26 195.63h-1v-.5h1z"/><path d="M270.76 185.3l4.64 14.27h-9.27z" stroke="#000"/><path d="M287.43 256.23h-16.67v-11" stroke="#000" fill="none"/><path d="M287.93 256.73h-.5v-1h.5z"/><path d="M270.76 230.47l4.64 14.27h-9.27z" stroke="#000"/><path d="M369.9 200.07v12.17h-50.7v28.06" stroke="#000" fill="none"/><path d="M369.9 185.3l4.65 14.27h-9.27z" stroke="#000"/><path d="M319.7 240.8h-1v-.5h1z"/><path d="M397.78 200.07v12.17h73.83v28.06" stroke="#000" fill="none"/><path d="M397.78 185.3l4.64 14.27h-9.27z" stroke="#000"/><path d="M472.1 240.8h-1v-.5h1z"/><path d="M364.1 256.23h.5" stroke="#000" fill="none"/><path d="M364.6 256.73h-.5v-1h.5z"/><path d="M352.07 256.23l14.27-4.63v9.27z" stroke="#000"/><path d="M440.8 256.23h.5" stroke="#000" fill="none"/><path d="M441.3 256.73h-.52v-1h.5z"/><path d="M428.75 256.23l14.27-4.63v9.27z" stroke="#000"/><path d="M504.32 256.23h-.5" stroke="#000" fill="none"/><path d="M504.33 256.73h-.5v-1h.5z"/><path d="M516.36 256.23l-14.27 4.64v-9.27z" stroke="#000"/><path d="M319.2 272.17v-.5" stroke="#000" fill="none"/><path d="M319.7 272.18h-1v-.5h1z"/><path d="M319.2 283.17l-4.64-14.26h9.27z" stroke="#000"/><path d="M549.24 273.34v-.5" stroke="#000" fill="none"/><path d="M549.74 273.36h-1v-.52h1z"/><path d="M549.24 283.17l-4.64-14.26h9.27z" stroke="#000"/><path d="M365.1 140h13.47v9.7l-6.73 6.44-6.73-6.45z" fill="#ef8d22"/><path d="M374.53 140h4.04v9.7l-6.73 6.44-6.73-6.45V140h4.05" stroke="#c92d39" stroke-width="3" fill="none"/><g><path d="M406.82 156.14h-13.46v-9.68l6.73-6.46 6.72 6.46z" stroke="#666" fill="#b2b2b2"/></g></g><g class="lucid-layer" lucid:layer-id="t8d.PWKXLU8j" display="none"><path d="M240 153.32h61.52v29.86H240z" stroke="#000" fill="#0c7cba"/><use xlink:href="#a" transform="matrix(1,0,0,1,245.00000000000003,158.31838565022426) translate(9.330620659722221 13.331163194444445)"/><path d="M518.48 285.3H580v29.86h-61.52z" stroke="#000" fill="#0c7cba"/><use xlink:href="#b" transform="matrix(1,0,0,1,523.47533632287,290.2914798206279) translate(5.996744791666664 13.331163194444445)"/><path d="M356.4 153.32h61.54v29.86H356.4z" stroke="#000" fill="#0c7cba"/><use xlink:href="#c" transform="matrix(1,0,0,1,361.4125560538116,158.31838565022426) translate(-0.67100694444445 13.331163194444445)"/><path d="M441.8 241.3h61.52v29.87H441.8z" stroke="#000" fill="#0c7cba"/><use xlink:href="#d" transform="matrix(1,0,0,1,446.7937219730943,246.30044843049328) translate(5.996744791666664 13.331163194444445)"/><path d="M288.43 241.3h61.53v29.87h-61.53z" stroke="#000" fill="#0c7cba"/><use xlink:href="#e" transform="matrix(1,0,0,1,293.43049327354254,246.30044843049328) translate(5.996744791666664 13.331163194444445)"/><path d="M288.43 285.3h61.53v29.86h-61.53z" stroke="#000" fill="#0c7cba"/><use xlink:href="#f" transform="matrix(1,0,0,1,293.43049327354254,290.2914798206279) translate(5.996744791666664 13.331163194444445)"/><path d="M240 196.13h61.52v32.22H240z" fill="#83bbe5"/><path d="M250.25 196.13h10.26m5.14 0h10.25m5.12 0h10.25m5.13 0h5.12v5.37m0 5.37v10.74m0 5.38v5.37h-5.12m-5.13 0h-10.25m-5.13 0h-10.26m-5.13 0h-10.25m-5.12 0H240v-5.37m0-5.37v-10.73m0-5.37v-5.37h5.13" stroke="#000" fill="none"/><use xlink:href="#h" transform="matrix(1,0,0,1,245.00000000000003,201.13104135525663) translate(5.996744791666664 9.27560763888889)"/><use xlink:href="#i" transform="matrix(1,0,0,1,245.00000000000003,201.13104135525663) translate(9.330620659722221 20.38671875)"/><path d="M365.1 240.12h61.54v32.22H365.1z" fill="#83bbe5"/><path d="M375.37 240.12h10.25m5.13 0H401m5.13 0h10.25m5.13 0h5.14v5.37m0 5.36v10.74m0 5.37v5.37h-5.13m-5.12 0h-10.25m-5.13 0h-10.25m-5.13 0h-10.25m-5.13 0h-5.13v-5.37m0-5.37v-10.74m0-5.37v-5.38h5.14" stroke="#000" fill="none"/><use xlink:href="#j" transform="matrix(1,0,0,1,370.11210762331837,245.12207274539114) translate(5.996744791666664 9.27560763888889)"/><use xlink:href="#k" transform="matrix(1,0,0,1,370.11210762331837,245.12207274539114) translate(5.996744791666664 20.38671875)"/><path d="M518.48 240.12H580v32.22h-61.52z" fill="#83bbe5"/><path d="M528.73 240.12h10.25m5.13 0h10.26m5.13 0h10.25m5.12 0H580v5.37m0 5.36v10.74m0 5.37v5.37h-5.13m-5.12 0H559.5m-5.14 0H544.1m-5.12 0h-10.25m-5.13 0h-5.12v-5.37m0-5.37v-10.74m0-5.37v-5.38h5.12" stroke="#000" fill="none"/><use xlink:href="#l" transform="matrix(1,0,0,1,523.47533632287,245.12207274539114) translate(-0.67100694444445 9.27560763888889)"/><use xlink:href="#m" transform="matrix(1,0,0,1,523.47533632287,245.12207274539114) translate(5.996744791666664 20.38671875)"/><path d="M270.76 195.13v.5" stroke="#000" fill="none"/><path d="M271.26 195.63h-1v-.5h1z"/><path d="M270.76 185.3l4.64 14.27h-9.27z" stroke="#000"/><path d="M287.43 256.23h-16.67v-11" stroke="#000" fill="none"/><path d="M287.93 256.73h-.5v-1h.5z"/><path d="M270.76 230.47l4.64 14.27h-9.27z" stroke="#000"/><path d="M369.9 200.07v12.17h-50.7v28.06" stroke="#000" fill="none"/><path d="M369.9 185.3l4.65 14.27h-9.27z" stroke="#000"/><path d="M319.7 240.8h-1v-.5h1z"/><path d="M397.78 200.07v12.17h73.83v28.06" stroke="#000" fill="none"/><path d="M397.78 185.3l4.64 14.27h-9.27z" stroke="#000"/><path d="M472.1 240.8h-1v-.5h1z"/><path d="M364.1 256.23h.5" stroke="#000" fill="none"/><path d="M364.6 256.73h-.5v-1h.5z"/><path d="M352.07 256.23l14.27-4.63v9.27z" stroke="#000"/><path d="M440.8 256.23h.5" stroke="#000" fill="none"/><path d="M441.3 256.73h-.52v-1h.5z"/><path d="M428.75 256.23l14.27-4.63v9.27z" stroke="#000"/><path d="M504.32 256.23h-.5" stroke="#000" fill="none"/><path d="M504.33 256.73h-.5v-1h.5z"/><path d="M516.36 256.23l-14.27 4.64v-9.27z" stroke="#000"/><path d="M319.2 272.17v-.5" stroke="#000" fill="none"/><path d="M319.7 272.18h-1v-.5h1z"/><path d="M319.2 283.17l-4.64-14.26h9.27z" stroke="#000"/><path d="M549.24 273.34v-.5" stroke="#000" fill="none"/><path d="M549.74 273.36h-1v-.52h1z"/><path d="M549.24 283.17l-4.64-14.26h9.27z" stroke="#000"/><path d="M365.1 140h13.47v9.7l-6.73 6.44-6.73-6.45z" stroke="#000" fill="#ef8d22"/><g><path d="M406.82 156.14h-13.46v-9.68l6.73-6.46 6.72 6.46z" fill="#834187"/><path d="M397.4 156.14h-4.04v-9.68l6.73-6.46 6.72 6.46v9.68h-4.04" stroke="#c92d39" stroke-width="3" fill="none"/></g></g><g class="lucid-layer" lucid:layer-id="18d.go~w~HcX" display="none"><path d="M240 153.32h61.52v29.86H240z" stroke="#000" fill="#0c7cba"/><use xlink:href="#a" transform="matrix(1,0,0,1,245.00000000000003,158.31838565022423) translate(9.330620659722221 13.331163194444445)"/><path d="M518.48 285.3H580v29.86h-61.52z" stroke="#000" fill="#0c7cba"/><use xlink:href="#b" transform="matrix(1,0,0,1,523.47533632287,290.2914798206279) translate(5.996744791666664 13.331163194444445)"/><path d="M356.4 153.32h61.54v29.86H356.4z" stroke="#000" fill="#0c7cba"/><use xlink:href="#c" transform="matrix(1,0,0,1,361.4125560538116,158.31838565022423) translate(-0.67100694444445 13.331163194444445)"/><path d="M441.8 241.3h61.52v29.87H441.8z" stroke="#000" fill="#0c7cba"/><use xlink:href="#d" transform="matrix(1,0,0,1,446.7937219730943,246.30044843049322) translate(5.996744791666664 13.331163194444445)"/><path d="M288.43 241.3h61.53v29.87h-61.53z" stroke="#000" fill="#0c7cba"/><use xlink:href="#e" transform="matrix(1,0,0,1,293.43049327354254,246.30044843049322) translate(5.996744791666664 13.331163194444445)"/><path d="M288.43 285.3h61.53v29.86h-61.53z" stroke="#000" fill="#0c7cba"/><use xlink:href="#f" transform="matrix(1,0,0,1,293.43049327354254,290.2914798206279) translate(5.996744791666664 13.331163194444445)"/><path d="M472.83 153.32h61.52v29.86h-61.52z" fill="#0c7cba"/><path d="M513.84 153.32h20.5v29.86h-20.5m-20.5 0h-20.5v-29.86h20.5" stroke="#c92d39" stroke-width="3" fill="none"/><use xlink:href="#g" transform="matrix(1,0,0,1,477.82511210762334,158.31838565022423) translate(-0.67100694444445 13.331163194444445)"/><path d="M240 196.13h61.52v32.22H240z" fill="#83bbe5"/><path d="M250.25 196.13h10.26m5.14 0h10.25m5.12 0h10.25m5.13 0h5.12v5.37m0 5.37v10.74m0 5.38v5.37h-5.12m-5.13 0h-10.25m-5.13 0h-10.26m-5.13 0h-10.25m-5.12 0H240v-5.37m0-5.37v-10.73m0-5.37v-5.37h5.13" stroke="#000" fill="none"/><use xlink:href="#h" transform="matrix(1,0,0,1,245.00000000000003,201.1310413552566) translate(5.996744791666664 9.27560763888889)"/><use xlink:href="#i" transform="matrix(1,0,0,1,245.00000000000003,201.1310413552566) translate(9.330620659722221 20.38671875)"/><path d="M365.1 240.12h61.54v32.22H365.1z" fill="#83bbe5"/><path d="M375.37 240.12h10.25m5.13 0H401m5.13 0h10.25m5.13 0h5.14v5.37m0 5.36v10.74m0 5.37v5.37h-5.13m-5.12 0h-10.25m-5.13 0h-10.25m-5.13 0h-10.25m-5.13 0h-5.13v-5.37m0-5.37v-10.74m0-5.37v-5.38h5.14" stroke="#000" fill="none"/><use xlink:href="#j" transform="matrix(1,0,0,1,370.11210762331837,245.12207274539114) translate(5.996744791666664 9.27560763888889)"/><use xlink:href="#k" transform="matrix(1,0,0,1,370.11210762331837,245.12207274539114) translate(5.996744791666664 20.38671875)"/><path d="M518.48 240.12H580v32.22h-61.52z" fill="#83bbe5"/><path d="M528.73 240.12h10.25m5.13 0h10.26m5.13 0h10.25m5.12 0H580v5.37m0 5.36v10.74m0 5.37v5.37h-5.13m-5.12 0H559.5m-5.14 0H544.1m-5.12 0h-10.25m-5.13 0h-5.12v-5.37m0-5.37v-10.74m0-5.37v-5.38h5.12" stroke="#000" fill="none"/><use xlink:href="#l" transform="matrix(1,0,0,1,523.47533632287,245.12207274539114) translate(-0.67100694444445 9.27560763888889)"/><use xlink:href="#m" transform="matrix(1,0,0,1,523.47533632287,245.12207274539114) translate(5.996744791666664 20.38671875)"/><path d="M270.76 195.13v.5" stroke="#000" fill="none"/><path d="M271.26 195.63h-1v-.5h1z"/><path d="M270.76 185.3l4.64 14.27h-9.27z" stroke="#000"/><path d="M287.43 256.23h-16.67v-11" stroke="#000" fill="none"/><path d="M287.93 256.73h-.5v-1h.5z"/><path d="M270.76 230.47l4.64 14.27h-9.27z" stroke="#000"/><path d="M369.9 200.07v12.17h-50.7v28.06" stroke="#000" fill="none"/><path d="M369.9 185.3l4.65 14.27h-9.27z" stroke="#000"/><path d="M319.7 240.8h-1v-.5h1z"/><path d="M397.78 200.07v12.17h73.83v28.06" stroke="#000" fill="none"/><path d="M397.78 185.3l4.64 14.27h-9.27z" stroke="#000"/><path d="M472.1 240.8h-1v-.5h1z"/><path d="M364.1 256.23h.5" stroke="#000" fill="none"/><path d="M364.6 256.73h-.5v-1h.5z"/><path d="M352.07 256.23l14.27-4.63v9.27z" stroke="#000"/><path d="M440.8 256.23h.5" stroke="#000" fill="none"/><path d="M441.3 256.73h-.52v-1h.5z"/><path d="M428.76 256.23l14.26-4.63v9.27z" stroke="#000"/><path d="M504.32 256.23h-.5" stroke="#000" fill="none"/><path d="M504.33 256.73h-.5v-1h.5z"/><path d="M516.36 256.23l-14.27 4.64v-9.27z" stroke="#000"/><path d="M319.2 272.17v-.5" stroke="#000" fill="none"/><path d="M319.7 272.18h-1v-.5h1z"/><path d="M319.2 283.17l-4.64-14.26h9.27z" stroke="#000"/><path d="M549.24 273.34v-.5" stroke="#000" fill="none"/><path d="M549.74 273.36h-1v-.52h1z"/><path d="M549.24 283.17l-4.64-14.26h9.27z" stroke="#000"/><path d="M470.33 168.25h-33.4" stroke="#c92d39" stroke-width="2" fill="none"/><path d="M471.33 169.25h-1.03v-2h1.03z" fill="#c92d39"/><path d="M421.67 168.25l14.27-4.63v9.27z" stroke="#c92d39" stroke-width="2" fill="#c92d39"/><path d="M503.6 185.68v26.47h45.64v8.97" stroke="#c92d39" stroke-width="2" fill="none"/><path d="M504.6 185.7h-2v-1.02h2z" fill="#c92d39"/><path d="M549.24 236.4l-4.64-14.28h9.27z" stroke="#c92d39" stroke-width="2" fill="#c92d39"/><path d="M365.1 140h13.47v9.7l-6.73 6.44-6.73-6.45z" stroke="#000" fill="#ef8d22"/><path d="M482.15 140h13.46v9.7l-6.72 6.44-6.73-6.45z" fill="#ef8d22"/><path d="M491.57 140h4.04v9.7l-6.72 6.44-6.73-6.45V140h4.04" stroke="#c92d39" stroke-width="3" fill="none"/><g><path d="M406.82 156.14h-13.46v-9.68l6.73-6.46 6.72 6.46z" stroke="#000" fill="#834187"/></g></g><defs><path fill="#fff" d="M157-1349h916v228H762v893h311V0H157v-228h311v-893H157v-228" id="n"/><path fill="#fff" d="M768-1103c247 0 336 167 336 416V0H824v-619c-3-164-24-273-171-273-164 0-229 142-229 312V0H143c-4-359 9-736-8-1082h268c7 63 12 146 13 215h4c67-145 160-236 348-236" id="o"/><path fill="#fff" d="M427-171c3 195 2 397 2 596H148V-846c1-83-4-168-8-236h272c10 49 14 118 15 176h4c59-114 151-197 316-197 291 0 385 259 385 560 0 243-65 433-220 521-50 28-109 42-176 42-162-2-253-78-309-191zm69-661c-91 113-92 463-1 586 46 62 145 101 225 54 96-57 118-191 119-351 0-123-18-215-53-276-46-82-128-115-220-74-25 12-48 33-70 61" id="p"/><path fill="#fff" d="M471 20c-247 0-336-169-336-415v-687h281v607c4 148 31 285 172 285 152 0 207-150 207-312v-580h281c4 359-9 736 8 1082H816c-7-63-11-146-12-215h-5C736-76 644 20 471 20" id="q"/><path fill="#fff" d="M711 13c-250 0-386-99-385-349l2-556H161v-190h181l88-282h176v282h385v190H606v530c-10 130 45 186 174 184 91-2 176-11 255-27v186C933-1 833 13 711 13" id="r"/><g id="a"><use transform="matrix(0.005425347222222222,0,0,0.005425347222222222,0,0)" xlink:href="#n"/><use transform="matrix(0.005425347222222222,0,0,0.005425347222222222,6.667751736111111,0)" xlink:href="#o"/><use transform="matrix(0.005425347222222222,0,0,0.005425347222222222,13.335503472222221,0)" xlink:href="#p"/><use transform="matrix(0.005425347222222222,0,0,0.005425347222222222,20.003255208333332,0)" xlink:href="#q"/><use transform="matrix(0.005425347222222222,0,0,0.005425347222222222,26.671006944444443,0)" xlink:href="#r"/></g><path fill="#fff" d="M615-1370c385 0 542 273 542 691 0 230-47 404-140 522S790 20 615 20C231 20 72-262 72-679c0-419 158-691 543-691zM797-330c77-133 78-564 0-695-44-73-101-113-182-113s-139 40-183 114c-79 133-78 560 0 694 45 77 102 118 183 118s138-41 182-118" id="s"/><g id="b"><use transform="matrix(0.005425347222222222,0,0,0.005425347222222222,0,0)" xlink:href="#s"/><use transform="matrix(0.005425347222222222,0,0,0.005425347222222222,6.667751736111111,0)" xlink:href="#q"/><use transform="matrix(0.005425347222222222,0,0,0.005425347222222222,13.335503472222221,0)" xlink:href="#r"/><use transform="matrix(0.005425347222222222,0,0,0.005425347222222222,20.003255208333332,0)" xlink:href="#p"/><use transform="matrix(0.005425347222222222,0,0,0.005425347222222222,26.671006944444443,0)" xlink:href="#q"/><use transform="matrix(0.005425347222222222,0,0,0.005425347222222222,33.33875868055556,0)" xlink:href="#r"/></g><path fill="#fff" d="M137 0v-1349h968v228H432v324h612v228H432v341h714V0H137" id="t"/><path fill="#fff" d="M1109-360C1066-122 902 20 624 20c-347 0-514-209-514-555 0-353 168-567 518-567 270 0 425 136 473 361l-283 14c-16-106-75-183-196-182-75 0-130 31-165 93s-52 152-52 270c0 249 74 374 221 374 120 0 188-82 201-201" id="u"/><path fill="#fff" d="M616-1102c361 0 521 202 521 560 0 354-171 562-527 562C259 20 92-192 92-542c0-351 169-560 524-560zm-9 930c200-2 236-165 236-370 0-199-27-367-223-367-195 0-233 146-233 367 0 129 18 223 55 282s92 88 165 88" id="v"/><path fill="#fff" d="M802-909c-3-189-2-383-2-575h281v1248c-1 83 4 168 8 236H817c-9-50-14-117-15-176h-4C735-49 651 20 482 20 191 20 97-238 97-539c0-243 66-432 221-519 50-28 108-42 175-42 162 2 253 78 309 191zm-70 658c91-113 93-462 2-584-46-61-145-100-224-53-96 56-119 190-120 349 0 123 17 214 52 275 46 82 130 115 222 74 25-12 46-33 68-61" id="w"/><path fill="#fff" d="M794-190h353V0H118v-190h395v-702H223v-190h571v892zM513-1277v-207h281v207H513" id="x"/><path fill="#fff" d="M1108-33c-3 314-178 467-492 467-243 0-400-94-447-291l281-33c17 79 82 141 174 141 176 0 212-155 205-347-2-40 5-80 0-115C773-85 665-12 501-12c-288 0-377-242-377-538 0-242 65-426 223-510 50-26 108-39 175-39 160 0 253 78 307 191h5c1-58 5-125 14-174h266c-12 335-3 703-6 1049zM811-384c25-82 27-259 1-342-30-99-77-180-190-180-172 0-205 171-205 356 0 116 18 202 54 258 48 76 129 107 221 70 62-25 96-86 119-162" id="y"/><g id="c"><use transform="matrix(0.005425347222222222,0,0,0.005425347222222222,0,0)" xlink:href="#t"/><use transform="matrix(0.005425347222222222,0,0,0.005425347222222222,6.667751736111111,0)" xlink:href="#o"/><use transform="matrix(0.005425347222222222,0,0,0.005425347222222222,13.335503472222221,0)" xlink:href="#u"/><use transform="matrix(0.005425347222222222,0,0,0.005425347222222222,20.003255208333332,0)" xlink:href="#v"/><use transform="matrix(0.005425347222222222,0,0,0.005425347222222222,26.671006944444443,0)" xlink:href="#w"/><use transform="matrix(0.005425347222222222,0,0,0.005425347222222222,33.33875868055556,0)" xlink:href="#x"/><use transform="matrix(0.005425347222222222,0,0,0.005425347222222222,40.00651041666667,0)" xlink:href="#o"/><use transform="matrix(0.005425347222222222,0,0,0.005425347222222222,46.674262152777786,0)" xlink:href="#y"/></g><path fill="#fff" d="M305-1169c27 366 9 780 14 1169H99v-1349h347c49 189 108 371 150 564 12 56 15 107 23 166 33-270 117-487 176-730h335V0H908c5-390-13-801 16-1169-52 285-130 541-199 809H507c-70-267-148-525-202-809" id="z"/><path fill="#fff" d="M874 0L612-392 348 0H49l406-559-387-523h303l241 354 240-354h305L770-562 1179 0H874" id="A"/><g id="d"><use transform="matrix(0.005425347222222222,0,0,0.005425347222222222,0,0)" xlink:href="#z"/><use transform="matrix(0.005425347222222222,0,0,0.005425347222222222,6.667751736111111,0)" xlink:href="#q"/><use transform="matrix(0.005425347222222222,0,0,0.005425347222222222,13.335503472222221,0)" xlink:href="#A"/><use transform="matrix(0.005425347222222222,0,0,0.005425347222222222,20.003255208333332,0)" xlink:href="#x"/><use transform="matrix(0.005425347222222222,0,0,0.005425347222222222,26.671006944444443,0)" xlink:href="#o"/><use transform="matrix(0.005425347222222222,0,0,0.005425347222222222,33.33875868055556,0)" xlink:href="#y"/></g><path fill="#fff" d="M609-1161c-125 0-218 36-218 153 0 149 166 161 290 196 235 67 484 129 484 421 0 300-239 408-554 411C302 23 93-114 38-367l285-37c32 128 131 205 296 203 143-2 259-31 259-173 0-164-197-172-333-212-218-64-441-131-441-405 0-276 231-379 511-379 299 0 463 114 513 363l-286 29c-28-115-96-183-233-183" id="B"/><path fill="#fff" d="M875-1102c70 0 148 7 206 17v237c-110-17-267-37-359 15-123 69-192 207-192 395V0H250c-10-367 32-789-52-1082h271c19 69 36 149 46 228h4c52-151 151-250 356-248" id="C"/><path fill="#fff" d="M1113-274C1038-96 884 20 626 20c-352 0-526-209-526-566 0-358 185-556 530-556 358 0 496 251 499 615H395c5 180 68 319 245 319 102 0 186-45 208-129zM857-663c-6-177-128-307-315-247-94 30-141 121-145 247h460" id="D"/><path fill="#fff" d="M775-193C708-75 621 20 439 20 226 20 106-93 106-306c0-251 170-341 417-346l223-4c4-143-12-264-148-264-103 0-141 58-150 153l-293-14c37-219 194-321 455-321 263 0 418 130 417 390v392c1 84 5 161 89 160 21 0 42-2 62-6v152c-57 15-108 27-180 26-145 0-202-73-217-205h-6zm-256 17c168 0 234-139 227-325-166 4-347-25-347 173 0 94 33 152 120 152" id="E"/><path fill="#fff" d="M934-1102c199 0 220 177 220 381V0H926c-2-260 10-533-4-785-4-72-14-138-83-138-34 0-61 27-81 81s-29 134-29 241V0H501c-2-260 9-533-5-785-4-72-13-138-82-138-46 0-65 47-80 93-21 67-30 155-30 248V0H75c-3-360 6-732-6-1082h209c6 50 3 123 8 175 36-100 83-195 216-195 135 0 166 79 196 196 42-105 93-196 236-196" id="F"/><g id="e"><use transform="matrix(0.005425347222222222,0,0,0.005425347222222222,0,0)" xlink:href="#B"/><use transform="matrix(0.005425347222222222,0,0,0.005425347222222222,6.667751736111111,0)" xlink:href="#r"/><use transform="matrix(0.005425347222222222,0,0,0.005425347222222222,13.335503472222221,0)" xlink:href="#C"/><use transform="matrix(0.005425347222222222,0,0,0.005425347222222222,20.003255208333332,0)" xlink:href="#D"/><use transform="matrix(0.005425347222222222,0,0,0.005425347222222222,26.671006944444443,0)" xlink:href="#E"/><use transform="matrix(0.005425347222222222,0,0,0.005425347222222222,33.33875868055556,0)" xlink:href="#F"/></g><path fill="#fff" d="M872-915c-35-112-84-223-220-223-91 0-156 41-204 116-89 137-87 550 2 688 51 79 116 122 209 122 150 0 197-126 240-244l273 52C1094-168 961 20 656 20 239 20 80-262 80-681c0-418 154-689 568-689 289 0 425 167 496 389" id="G"/><path fill="#fff" d="M844-1321c-130 0-195 53-191 182v57h443v190H653V0H373v-892H117v-190h256v-83c5-247 162-348 422-349 120-1 232 13 327 28v184c-84-10-183-19-278-19" id="H"/><g id="f"><use transform="matrix(0.005425347222222222,0,0,0.005425347222222222,0,0)" xlink:href="#G"/><use transform="matrix(0.005425347222222222,0,0,0.005425347222222222,6.667751736111111,0)" xlink:href="#v"/><use transform="matrix(0.005425347222222222,0,0,0.005425347222222222,13.335503472222221,0)" xlink:href="#o"/><use transform="matrix(0.005425347222222222,0,0,0.005425347222222222,20.003255208333332,0)" xlink:href="#H"/><use transform="matrix(0.005425347222222222,0,0,0.005425347222222222,26.671006944444443,0)" xlink:href="#x"/><use transform="matrix(0.005425347222222222,0,0,0.005425347222222222,33.33875868055556,0)" xlink:href="#y"/></g><path fill="#fff" d="M622-916c-112 2-200 14-200 111 0 90 89 101 168 121 234 58 514 77 514 368C1104-4 751 54 434 5 267-21 161-112 121-270l247-37c24 111 113 145 252 141 114-3 226-12 226-124 0-101-103-113-192-134-225-54-490-76-490-351 0-247 201-328 458-328 245 0 413 88 457 292l-249 26c-16-98-92-133-208-131" id="I"/><g id="g"><use transform="matrix(0.005425347222222222,0,0,0.005425347222222222,0,0)" xlink:href="#z"/><use transform="matrix(0.005425347222222222,0,0,0.005425347222222222,6.667751736111111,0)" xlink:href="#E"/><use transform="matrix(0.005425347222222222,0,0,0.005425347222222222,13.335503472222221,0)" xlink:href="#o"/><use transform="matrix(0.005425347222222222,0,0,0.005425347222222222,20.003255208333332,0)" xlink:href="#x"/><use transform="matrix(0.005425347222222222,0,0,0.005425347222222222,26.671006944444443,0)" xlink:href="#H"/><use transform="matrix(0.005425347222222222,0,0,0.005425347222222222,33.33875868055556,0)" xlink:href="#D"/><use transform="matrix(0.005425347222222222,0,0,0.005425347222222222,40.00651041666667,0)" xlink:href="#I"/><use transform="matrix(0.005425347222222222,0,0,0.005425347222222222,46.674262152777786,0)" xlink:href="#r"/></g><g id="h"><use transform="matrix(0.005425347222222222,0,0,0.005425347222222222,0,0)" xlink:href="#B"/><use transform="matrix(0.005425347222222222,0,0,0.005425347222222222,6.667751736111111,0)" xlink:href="#r"/><use transform="matrix(0.005425347222222222,0,0,0.005425347222222222,13.335503472222221,0)" xlink:href="#C"/><use transform="matrix(0.005425347222222222,0,0,0.005425347222222222,20.003255208333332,0)" xlink:href="#D"/><use transform="matrix(0.005425347222222222,0,0,0.005425347222222222,26.671006944444443,0)" xlink:href="#E"/><use transform="matrix(0.005425347222222222,0,0,0.005425347222222222,33.33875868055556,0)" xlink:href="#F"/></g><g id="i"><use transform="matrix(0.005425347222222222,0,0,0.005425347222222222,0,0)" xlink:href="#n"/><use transform="matrix(0.005425347222222222,0,0,0.005425347222222222,6.667751736111111,0)" xlink:href="#o"/><use transform="matrix(0.005425347222222222,0,0,0.005425347222222222,13.335503472222221,0)" xlink:href="#p"/><use transform="matrix(0.005425347222222222,0,0,0.005425347222222222,20.003255208333332,0)" xlink:href="#q"/><use transform="matrix(0.005425347222222222,0,0,0.005425347222222222,26.671006944444443,0)" xlink:href="#r"/></g><g id="j"><use transform="matrix(0.005425347222222222,0,0,0.005425347222222222,0,0)" xlink:href="#z"/><use transform="matrix(0.005425347222222222,0,0,0.005425347222222222,6.667751736111111,0)" xlink:href="#q"/><use transform="matrix(0.005425347222222222,0,0,0.005425347222222222,13.335503472222221,0)" xlink:href="#A"/><use transform="matrix(0.005425347222222222,0,0,0.005425347222222222,20.003255208333332,0)" xlink:href="#x"/><use transform="matrix(0.005425347222222222,0,0,0.005425347222222222,26.671006944444443,0)" xlink:href="#o"/><use transform="matrix(0.005425347222222222,0,0,0.005425347222222222,33.33875868055556,0)" xlink:href="#y"/></g><g id="k"><use transform="matrix(0.005425347222222222,0,0,0.005425347222222222,0,0)" xlink:href="#B"/><use transform="matrix(0.005425347222222222,0,0,0.005425347222222222,6.667751736111111,0)" xlink:href="#r"/><use transform="matrix(0.005425347222222222,0,0,0.005425347222222222,13.335503472222221,0)" xlink:href="#C"/><use transform="matrix(0.005425347222222222,0,0,0.005425347222222222,20.003255208333332,0)" xlink:href="#D"/><use transform="matrix(0.005425347222222222,0,0,0.005425347222222222,26.671006944444443,0)" xlink:href="#E"/><use transform="matrix(0.005425347222222222,0,0,0.005425347222222222,33.33875868055556,0)" xlink:href="#F"/></g><g id="l"><use transform="matrix(0.005425347222222222,0,0,0.005425347222222222,0,0)" xlink:href="#t"/><use transform="matrix(0.005425347222222222,0,0,0.005425347222222222,6.667751736111111,0)" xlink:href="#o"/><use transform="matrix(0.005425347222222222,0,0,0.005425347222222222,13.335503472222221,0)" xlink:href="#u"/><use transform="matrix(0.005425347222222222,0,0,0.005425347222222222,20.003255208333332,0)" xlink:href="#v"/><use transform="matrix(0.005425347222222222,0,0,0.005425347222222222,26.671006944444443,0)" xlink:href="#w"/><use transform="matrix(0.005425347222222222,0,0,0.005425347222222222,33.33875868055556,0)" xlink:href="#x"/><use transform="matrix(0.005425347222222222,0,0,0.005425347222222222,40.00651041666667,0)" xlink:href="#o"/><use transform="matrix(0.005425347222222222,0,0,0.005425347222222222,46.674262152777786,0)" xlink:href="#y"/></g><g id="m"><use transform="matrix(0.005425347222222222,0,0,0.005425347222222222,0,0)" xlink:href="#s"/><use transform="matrix(0.005425347222222222,0,0,0.005425347222222222,6.667751736111111,0)" xlink:href="#q"/><use transform="matrix(0.005425347222222222,0,0,0.005425347222222222,13.335503472222221,0)" xlink:href="#r"/><use transform="matrix(0.005425347222222222,0,0,0.005425347222222222,20.003255208333332,0)" xlink:href="#p"/><use transform="matrix(0.005425347222222222,0,0,0.005425347222222222,26.671006944444443,0)" xlink:href="#q"/><use transform="matrix(0.005425347222222222,0,0,0.005425347222222222,33.33875868055556,0)" xlink:href="#r"/></g></defs></g></svg>